<svg width="64" height="65" viewBox="0 0 64 65" fill="none" xmlns="http://www.w3.org/2000/svg">
<g id="Group 2">
<path id="Vector" d="M2.6566 9.38311C3.02649 8.72925 3.49566 8.1234 3.98382 7.55456C6.80753 4.26416 11.0404 2.27735 15.1512 1.13614C17.4381 0.501291 20.4262 -0.0791851 22.5993 1.16472C23.6113 1.74391 24.2286 2.76064 24.5196 3.8665C25.0201 5.76839 24.7372 7.86202 24.3883 9.76503C24.2514 10.5112 23.7283 12.4423 23.8999 13.0832L23.87 13.08C23.5704 13.0915 22.6835 13.56 22.3435 13.6865C21.7649 13.9042 21.1792 14.1009 20.5866 14.2768C16.9016 15.3527 12.5733 15.6714 8.75355 15.2738C6.87013 15.0778 4.22671 14.5854 2.98685 13.0377C2.94999 12.9922 2.91447 12.9456 2.88031 12.898C2.84615 12.8504 2.81339 12.8019 2.78205 12.7524C2.7507 12.7029 2.72082 12.6525 2.69239 12.6013C2.66397 12.5501 2.63705 12.4981 2.61165 12.4453C2.58624 12.3925 2.56238 12.339 2.54007 12.2848C2.51777 12.2307 2.49705 12.1759 2.47792 12.1205C2.45879 12.0652 2.44129 12.0093 2.4254 11.9529C2.40951 11.8965 2.39527 11.8397 2.38268 11.7825C2.37008 11.7253 2.35916 11.6678 2.3499 11.6099C2.34064 11.552 2.33307 11.4939 2.32719 11.4356C2.3213 11.3774 2.3171 11.319 2.3146 11.2605C2.31211 11.2019 2.3113 11.1434 2.3122 11.0848C2.3131 11.0262 2.31569 10.9677 2.31998 10.9092C2.32427 10.8508 2.33025 10.7926 2.33791 10.7345C2.34558 10.6764 2.35493 10.6186 2.36596 10.5611C2.37698 10.5035 2.38966 10.4463 2.404 10.3895C2.47904 10.0829 2.63148 9.73054 2.65594 9.42023C2.65692 9.40792 2.65638 9.39552 2.6566 9.38311ZM13.7839 5.33884C12.7938 6.10995 13.2818 7.49953 12.5721 8.11131C11.9289 8.66573 10.535 7.58945 9.88539 8.65302C9.89363 8.73663 9.91255 8.76368 9.98026 8.81577C10.117 8.92098 10.3014 8.99187 10.458 9.06493C11.103 9.36555 11.9227 9.58706 12.4236 10.1174C12.1681 11.0739 11.8439 12.0269 11.7484 13.0167C12.5219 12.6769 12.852 11.9457 13.3364 11.3091C13.5862 10.9818 13.8958 10.7045 14.3228 10.6558C15.4469 10.5274 15.6317 11.7609 17.1469 11.1107C16.6148 10.4406 15.9357 9.89059 15.4503 9.18559C15.9695 8.8804 17.0067 8.7006 17.3048 8.14897C17.3062 8.10305 17.3219 8.06417 17.2866 8.02896C16.9967 7.73872 15.6823 7.77075 15.2508 7.72139C14.9893 7.69148 14.7444 7.63874 14.4957 7.55284C14.2968 7.00127 14.2582 5.67517 13.7839 5.33884Z" fill="white" fill-opacity="0.86"/>
<path id="Subtract" fill-rule="evenodd" clip-rule="evenodd" d="M24.3343 12.907C24.191 12.9725 24.0453 13.0392 23.8999 13.0831L23.8701 13.08C23.87 13.08 23.87 13.08 23.87 13.08C23.8542 13.1205 23.8414 13.1416 23.8065 13.1706C23.4939 13.4295 22.5478 13.8271 22.0578 14.033C22.015 14.051 21.9756 14.0676 21.9405 14.0824C18.5979 15.4953 14.9439 16.0418 11.3357 16.1403C9.64369 16.1866 7.90223 16.1347 6.23849 15.8003C4.21044 15.3928 1.67335 14.3866 1.79315 11.9098C1.79683 11.8337 1.81699 11.7105 1.83894 11.5764C1.87798 11.3378 1.92269 11.0646 1.89041 10.9604C1.88304 10.9366 1.86708 10.9169 1.85111 10.8972C1.84312 10.8873 1.83512 10.8774 1.8282 10.8671C1.41605 11.6873 1.11656 12.6019 0.883398 13.4885C-0.533216 18.8753 0.73227 24.7416 2.44206 29.9125C4.78141 36.9875 8.27362 43.6206 11.754 50.2311C13.2869 53.1426 14.8174 56.0497 16.2462 58.9883C16.8552 60.2408 17.4473 61.5139 17.9677 62.8057C17.9951 62.8737 18.0388 62.9925 18.0913 63.1352C18.2553 63.5806 18.5053 64.2596 18.6136 64.3589C18.9973 64.6483 22.2713 64.1903 22.9934 64.0892L23.0251 64.0848C35.9831 62.2741 48.6598 55.6294 56.6056 45.0926C62.0285 37.9015 64.6861 29.2801 63.4138 20.2951C63.2685 19.2699 63.0823 18.2522 62.8552 17.2419C62.6282 16.2318 62.3609 15.2323 62.0535 14.2436C61.1631 11.3995 59.9554 8.46944 57.4884 6.63226C54.6897 4.54813 51.0012 4.45716 47.6858 4.95653C44.737 5.40067 41.8682 6.24393 39.0451 7.18684C35.8676 8.27501 32.7253 9.45651 29.6181 10.7313L25.6476 12.3522C25.2717 12.5066 24.8968 12.6634 24.5229 12.8226C24.4607 12.8491 24.3977 12.8779 24.3343 12.907ZM2.6566 9.38316C2.65652 9.38725 2.65653 9.39134 2.65655 9.39543C2.65657 9.4037 2.65659 9.41197 2.65594 9.42019C2.64014 9.62055 2.571 9.83842 2.50378 10.0502C2.46689 10.1664 2.43058 10.2808 2.40399 10.3895C2.38965 10.4463 2.37697 10.5035 2.36595 10.5611C2.35493 10.6186 2.34558 10.6764 2.33791 10.7345C2.33025 10.7926 2.32427 10.8508 2.31998 10.9092C2.31569 10.9676 2.31309 11.0261 2.31219 11.0847C2.3113 11.1433 2.3121 11.2019 2.3146 11.2604C2.3171 11.319 2.32129 11.3774 2.32718 11.4356C2.33307 11.4939 2.34064 11.552 2.3499 11.6099C2.35915 11.6677 2.37008 11.7253 2.38267 11.7825C2.39526 11.8397 2.4095 11.8965 2.42539 11.9528C2.44128 12.0093 2.45879 12.0652 2.47791 12.1205C2.49704 12.1759 2.51776 12.2307 2.54007 12.2848C2.56238 12.339 2.58624 12.3925 2.61164 12.4453C2.63705 12.498 2.66396 12.55 2.69239 12.6013C2.72081 12.6525 2.7507 12.7029 2.78204 12.7523C2.81339 12.8018 2.84614 12.8504 2.88031 12.898C2.91447 12.9456 2.94998 12.9922 2.98684 13.0377C3.15161 13.2433 3.34116 13.4304 3.55042 13.6005C3.34117 13.4304 3.15164 13.2434 2.98688 13.0377C2.95002 12.9922 2.91451 12.9456 2.88035 12.898C2.84618 12.8504 2.81343 12.8019 2.78208 12.7524C2.75074 12.7029 2.72085 12.6525 2.69243 12.6013C2.664 12.55 2.63709 12.4981 2.61168 12.4453C2.58628 12.3925 2.56242 12.339 2.54011 12.2848C2.5178 12.2307 2.49708 12.1759 2.47795 12.1205C2.45883 12.0652 2.44132 12.0093 2.42543 11.9529C2.40954 11.8965 2.3953 11.8397 2.38271 11.7825C2.37012 11.7253 2.35919 11.6678 2.34993 11.6099C2.34068 11.552 2.33311 11.4939 2.32722 11.4356C2.32133 11.3774 2.31714 11.319 2.31464 11.2605C2.31214 11.2019 2.31134 11.1434 2.31223 11.0848C2.31313 11.0262 2.31573 10.9676 2.32002 10.9092C2.32431 10.8508 2.33029 10.7926 2.33795 10.7345C2.34562 10.6764 2.35497 10.6186 2.36599 10.5611C2.37701 10.5035 2.38969 10.4463 2.40403 10.3895C2.43062 10.2809 2.46693 10.1665 2.50382 10.0502C2.57103 9.83845 2.64018 9.62058 2.65597 9.42022C2.65663 9.41199 2.65661 9.40373 2.65658 9.39545C2.65657 9.39134 2.65656 9.38722 2.65664 9.3831C2.65662 9.38312 2.65661 9.38314 2.6566 9.38316ZM30.5703 22.9087C32.2977 22.1863 34.0997 21.9178 35.9627 21.8575L36.0926 21.8543C37.877 21.8164 39.7357 22.1693 41.0627 23.4524C41.7305 24.0981 42.1847 24.9477 42.3996 25.8481C42.5968 26.6741 42.5804 27.5816 42.5646 28.4547C42.5604 28.6885 42.5562 28.9199 42.5562 29.1465C42.5561 29.6543 42.5535 30.1625 42.5508 30.671C42.5447 31.8352 42.5386 33.0004 42.5641 34.1629C41.745 34.9606 41.1277 35.0642 40.0166 35.101C40.0304 34.7068 40.0267 34.3097 40.023 33.9134C40.0213 33.7323 40.0196 33.5515 40.0195 33.3712V30.0749L40.0216 28.0086C40.0217 27.9176 40.0223 27.8262 40.023 27.7347C40.026 27.3222 40.0291 26.9059 39.9757 26.4987C39.9076 25.9781 39.75 25.4907 39.4845 25.0366C38.9435 24.1112 38.0743 23.6146 37.0593 23.3479C35.8111 23.1257 34.9295 23.2586 33.7132 23.5525L33.7049 29.5406C33.7048 29.96 33.7031 30.3797 33.7013 30.7995C33.6966 31.9208 33.6919 33.0431 33.7193 34.1629C32.9355 34.8832 32.1972 35.0671 31.1543 35.1031C31.1674 34.8032 31.1629 34.5 31.1584 34.1979C31.1564 34.0647 31.1544 33.9316 31.1539 33.7991L31.1523 31.481L31.152 23.997C30.8551 23.6463 30.6719 23.3648 30.5703 22.9087ZM25.703 23.0752C25.6812 23.012 25.6586 22.9492 25.6352 22.8865C26.5148 22.292 27.1169 22.0269 28.1557 21.8298C28.5359 23.0122 28.6869 24.205 28.7076 25.4427C28.6895 27.3596 28.182 29.2384 27.0459 30.801C25.483 32.9508 23.0644 34.2288 20.5282 34.8603C19.7863 35.0451 19.0333 35.1639 18.279 35.283C18.2345 35.29 18.19 35.2971 18.1455 35.3041C17.7396 34.8606 17.3499 34.4078 17.0081 33.9121C14.8884 30.8366 13.8854 26.5693 13.7957 22.8764C14.5978 22.3215 15.2952 21.9689 16.2773 21.8571C16.3309 21.879 16.332 21.889 16.338 21.944C16.3384 21.947 16.3387 21.9502 16.3391 21.9535C16.351 22.0586 16.3464 22.1742 16.3419 22.2878C16.3393 22.3529 16.3368 22.4173 16.3374 22.4788C16.3402 22.764 16.3604 23.0494 16.3825 23.3336C16.6416 26.6698 17.4775 31.0298 19.7624 33.6198C20.1855 33.5722 20.6199 33.4434 21.0195 33.2997C22.9975 32.5889 24.5291 31.0188 25.4062 29.134C25.4341 29.0732 25.4613 29.0122 25.4877 28.9507C25.5141 28.8894 25.5397 28.8277 25.5645 28.7656C25.5894 28.7036 25.6135 28.6412 25.6369 28.5786C25.6602 28.516 25.6828 28.453 25.7046 28.3899C25.7264 28.3267 25.7474 28.2632 25.7676 28.1995C25.7878 28.1358 25.8073 28.0719 25.826 28.0077C25.8446 27.9435 25.8625 27.8791 25.8795 27.8145C25.8966 27.7499 25.9129 27.685 25.9284 27.62C25.9438 27.555 25.9585 27.4898 25.9724 27.4243C25.9862 27.359 25.9993 27.2934 26.0116 27.2277C26.0238 27.162 26.0352 27.0962 26.0459 27.0302C26.0565 26.9642 26.0663 26.8981 26.0753 26.8319C26.0843 26.7656 26.0925 26.6993 26.0999 26.6329C26.1073 26.5664 26.1138 26.4999 26.1195 26.4333C26.1253 26.3667 26.1302 26.3001 26.1343 26.2333C26.1383 26.1666 26.1416 26.0999 26.1441 26.0331C26.1466 25.9663 26.1482 25.8995 26.149 25.8327C26.1497 25.7658 26.1497 25.699 26.1489 25.6322C26.148 25.5653 26.1464 25.4985 26.1439 25.4317C26.1414 25.3649 26.1381 25.2982 26.1339 25.2314C26.1298 25.1647 26.1249 25.0981 26.1191 25.0315C26.1134 24.9649 26.1068 24.8984 26.0994 24.8319C26.0919 24.7655 26.0837 24.6992 26.0746 24.633C26.0656 24.5668 26.0558 24.5007 26.0451 24.4346C26.0345 24.3687 26.023 24.3028 26.0106 24.2371C25.9984 24.1714 25.9853 24.1059 25.9714 24.0405C25.9575 23.9751 25.9428 23.91 25.9273 23.845C25.9118 23.7799 25.8954 23.7151 25.8783 23.6505C25.8612 23.5859 25.8433 23.5215 25.8246 23.4573C25.8059 23.3931 25.7865 23.3292 25.7662 23.2655C25.746 23.2018 25.7249 23.1383 25.703 23.0752ZM19.342 40.2385C20.5439 39.8007 21.7391 39.6261 23.0075 39.5265C23.1338 39.514 23.2638 39.5124 23.3924 39.5108C23.4361 39.5103 23.4797 39.5098 23.5229 39.5088C25.182 39.4713 26.8873 39.7068 28.1313 40.9082C28.6932 41.4509 29.0659 42.1228 29.2563 42.8794C29.4698 43.7284 29.4518 44.7366 29.4352 45.6687C29.4308 45.9099 29.4266 46.146 29.4265 46.373C29.4263 46.9164 29.4237 47.46 29.4211 48.0038C29.4157 49.1531 29.4102 50.3028 29.4273 51.4512C29.8707 51.431 30.326 51.4452 30.7763 51.4592C30.9446 51.4645 31.1122 51.4697 31.2783 51.4731C31.1296 51.8697 30.9556 52.2272 30.6519 52.5302C30.506 52.6756 30.2947 52.8493 30.0876 52.8836C29.8653 52.9203 29.6121 52.9109 29.3687 52.9018C29.2635 52.8979 29.1601 52.894 29.0618 52.894L26.7376 52.8938L18.3653 52.8926C18.4464 52.6194 18.5293 52.3795 18.665 52.1273C18.8109 51.8772 19.0018 51.6643 19.2023 51.4575C19.9175 51.4297 20.6393 51.4384 21.3594 51.4471C21.7041 51.4513 22.0485 51.4554 22.3915 51.4556C22.8742 51.4558 23.3573 51.4534 23.8404 51.4509C24.8468 51.4458 25.8537 51.4407 26.8588 51.4598C26.873 49.7118 26.876 47.9638 26.8679 46.2157C26.8677 45.9741 26.874 45.7179 26.8804 45.4558C26.8965 44.7953 26.9136 44.0981 26.8311 43.5052C26.8166 43.408 26.7976 43.3118 26.7739 43.2164C26.7503 43.1211 26.7221 43.0271 26.6894 42.9345C26.6567 42.8419 26.6196 42.7511 26.5781 42.662C26.5367 42.573 26.491 42.4861 26.4412 42.4015C26.0292 41.6856 25.3172 41.2132 24.5272 41.0016C23.3681 40.6912 22.0113 40.9338 20.9491 41.4601C20.7905 41.5387 20.6401 41.6333 20.4899 41.7279C20.3673 41.8051 20.2448 41.8822 20.1179 41.9506C19.9996 42.0143 19.8476 41.9778 19.7253 41.9377C19.3135 41.8027 18.9007 41.4139 18.7159 41.0271C18.644 40.8765 18.5778 40.7316 18.6358 40.5693C18.801 40.4296 19.0265 40.3502 19.2358 40.2764C19.2718 40.2637 19.3073 40.2511 19.342 40.2385ZM31.1523 36.985C31.5424 36.4739 32.0369 36.1294 32.6641 35.993C33.0261 35.9682 33.3811 35.9718 33.7428 36.001C33.662 36.6022 33.6682 37.2312 33.6743 37.8468C33.676 38.0152 33.6776 38.1825 33.6775 38.348C33.6774 38.495 33.6753 38.6436 33.6732 38.7929C33.6666 39.2661 33.6599 39.747 33.7153 40.2097C33.9456 40.2081 34.1761 40.2063 34.4066 40.2045C35.7079 40.1944 37.0118 40.1843 38.3117 40.2072C39.1948 40.2228 39.9556 40.4195 40.5821 41.0782C41.5273 42.072 41.6977 43.5611 41.6685 44.8715C41.6186 47.1058 40.7326 49.301 39.0979 50.8486C38.7317 51.1926 38.3435 51.5098 37.9335 51.8003C37.3781 52.1875 35.8708 53.0831 35.1872 53.063C34.6503 52.9557 34.3176 52.6997 33.9963 52.2715C34.6608 52.0325 35.3141 51.6878 35.8909 51.283C35.9412 51.2475 35.9911 51.2113 36.0406 51.1746C36.09 51.1378 36.139 51.1005 36.1875 51.0625C36.2361 51.0246 36.2842 50.986 36.3318 50.9469C36.3794 50.9078 36.4265 50.8681 36.4731 50.8278C36.5198 50.7875 36.5659 50.7467 36.6115 50.7053C36.6571 50.6639 36.7023 50.6219 36.7469 50.5794C36.7915 50.5369 36.8356 50.4939 36.8791 50.4502C36.9227 50.4067 36.9657 50.3626 37.0082 50.318C37.0507 50.2733 37.0926 50.2281 37.134 50.1825C37.1754 50.1368 37.2162 50.0907 37.2564 50.044C37.2967 49.9974 37.3363 49.9502 37.3754 49.9026C37.4146 49.8549 37.4531 49.8069 37.491 49.7584C37.5289 49.7098 37.5663 49.6607 37.603 49.6113C37.6397 49.5618 37.6758 49.5118 37.7114 49.4614C37.7469 49.4111 37.7817 49.3603 37.816 49.3091C37.8503 49.2579 37.8839 49.2063 37.917 49.1542C37.95 49.1022 37.9823 49.0498 38.014 48.997C38.0457 48.9442 38.0768 48.891 38.1072 48.8374C38.1377 48.7838 38.1675 48.7298 38.1966 48.6755C38.2257 48.6212 38.2541 48.5665 38.2819 48.5115C38.3097 48.4565 38.3368 48.4012 38.3632 48.3455C38.3897 48.2898 38.4154 48.2339 38.4405 48.1776C38.4655 48.1212 38.4899 48.0646 38.5136 48.0077C38.5373 47.9509 38.5602 47.8937 38.5825 47.8363C38.6048 47.7788 38.6263 47.721 38.6472 47.6631C38.6681 47.6051 38.6882 47.5469 38.7077 47.4884C38.7271 47.4299 38.7458 47.3712 38.7639 47.3123C38.7819 47.2534 38.7992 47.1942 38.8158 47.1349C38.8324 47.0755 38.8482 47.016 38.8633 46.9562C38.8784 46.8965 38.8928 46.8365 38.9065 46.7764C38.9201 46.7164 38.933 46.6562 38.9452 46.5958C38.9574 46.5353 38.9688 46.4748 38.9795 46.4141C39.2042 45.1152 39.1711 43.3002 38.367 42.1848C38.2051 41.9602 37.9711 41.7421 37.705 41.6508C37.3191 41.5185 36.8563 41.5305 36.4269 41.5415C36.3139 41.5445 36.2032 41.5473 36.0968 41.5475L33.256 41.5513C33.1219 41.5514 32.9846 41.5545 32.8459 41.5575C32.4317 41.5667 32.0045 41.5762 31.6099 41.5094L31.5677 41.5019C31.5198 41.4653 31.4738 41.4285 31.4306 41.3862C31.3273 41.2852 31.2604 41.1827 31.225 41.0415C31.1237 40.6386 31.1346 40.1531 31.1447 39.7049C31.1477 39.5724 31.1506 39.4432 31.1505 39.3203L31.1523 36.985ZM43.6439 22.9157C45.3556 22.1819 46.7164 21.9171 48.5777 21.8576C50.1722 21.8068 51.8792 22.055 53.102 23.1698C53.7218 23.735 54.1364 24.4737 54.3301 25.2878C54.4969 25.9881 54.4759 26.8891 54.457 27.7024C54.4515 27.9422 54.4461 28.1743 54.4457 28.3915C54.4449 28.9033 54.4407 29.4164 54.4364 29.9302C54.4248 31.3339 54.4131 32.7422 54.4712 34.1392L54.4288 34.1846C53.6955 34.9575 52.9519 35.0718 51.9251 35.0982C51.961 34.2363 51.9561 33.3696 51.9511 32.5049C51.9495 32.2187 51.9478 31.9328 51.9477 31.6473L51.9495 28.0317C51.9495 27.8624 51.9527 27.6895 51.9559 27.5147C51.9663 26.9404 51.9771 26.3465 51.88 25.7983C51.8632 25.6991 51.8415 25.601 51.815 25.5041C51.7883 25.4071 51.757 25.3116 51.7209 25.2177C51.6848 25.1239 51.6442 25.0321 51.599 24.9423C51.5537 24.8524 51.5041 24.7651 51.4501 24.6802C50.974 23.9293 50.2186 23.4906 49.3619 23.3026C47.8386 22.9686 46.342 23.5629 45.0773 24.3666C44.797 24.3029 44.5411 24.2033 44.3081 24.0327C43.9262 23.7532 43.7187 23.3747 43.6439 22.9157ZM8.81839 22.6725C9.48594 22.2081 10.1327 21.934 10.9467 21.8558C11.0142 21.8436 11.0886 21.8418 11.161 21.8401C11.1931 21.8394 11.2247 21.8386 11.2551 21.837C11.5558 22.7969 11.5363 23.8791 11.5177 24.9115C11.5133 25.1548 11.5089 25.3953 11.5089 25.6308C11.5042 26.7559 11.506 27.881 11.5143 29.006C10.9795 29.5974 10.2624 29.851 9.48368 29.9109L8.97081 29.9206L8.97151 26.1962C8.97164 25.9692 8.97449 25.7411 8.97735 25.5125C8.98923 24.5618 9.00122 23.602 8.81839 22.6725ZM19.7767 22.853C20.5623 22.295 21.2354 21.9739 22.1955 21.8553L22.2216 21.8541C22.3243 21.9323 22.3839 22.2124 22.4208 22.386C22.4272 22.4158 22.4329 22.4426 22.438 22.4646C22.9279 24.5709 22.498 26.7129 21.3489 28.5301C20.6187 29.6846 20.0564 30.051 18.7316 30.3492L18.6999 30.3498C18.7102 30.2306 18.8215 30.0617 18.9228 29.908C18.9756 29.8279 19.0257 29.7519 19.0572 29.6893C20.085 27.6514 20.4885 25.0475 19.7767 22.853Z" fill="white" fill-opacity="0.86"/>
</g>
</svg>
